<mxfile host="65bd71144e">
    <diagram id="r89aeUUbSYoEcmXRv9Xf" name="Page-1">
        <mxGraphModel dx="2560" dy="875" grid="0" gridSize="10" guides="1" tooltips="1" connect="1" arrows="1" fold="1" page="0" pageScale="1" pageWidth="850" pageHeight="1100" math="0" shadow="0">
            <root>
                <mxCell id="0"/>
                <mxCell id="1" parent="0"/>
                <mxCell id="2" value="&lt;font style=&quot;font-size: 18px;&quot;&gt;Entities&lt;/font&gt;" style="text;html=1;align=center;verticalAlign=middle;resizable=0;points=[];autosize=1;strokeColor=none;fillColor=none;" parent="1" vertex="1">
                    <mxGeometry x="-799" y="-252" width="77" height="34" as="geometry"/>
                </mxCell>
                <mxCell id="3" value="Delivery Person" style="rounded=1;whiteSpace=wrap;html=1;fontSize=18;" parent="1" vertex="1">
                    <mxGeometry x="-831" y="109" width="120" height="60" as="geometry"/>
                </mxCell>
                <mxCell id="4" value="Admin" style="rounded=1;whiteSpace=wrap;html=1;fontSize=18;" parent="1" vertex="1">
                    <mxGeometry x="-831" y="181" width="120" height="60" as="geometry"/>
                </mxCell>
                <mxCell id="5" value="Package" style="rounded=1;whiteSpace=wrap;html=1;fontSize=18;" parent="1" vertex="1">
                    <mxGeometry x="-831" y="253" width="120" height="60" as="geometry"/>
                </mxCell>
                <mxCell id="6" value="Recipient" style="rounded=1;whiteSpace=wrap;html=1;fontSize=18;" parent="1" vertex="1">
                    <mxGeometry x="-831" y="325" width="120" height="60" as="geometry"/>
                </mxCell>
                <mxCell id="7" value="Notification" style="rounded=1;whiteSpace=wrap;html=1;fontSize=18;" parent="1" vertex="1">
                    <mxGeometry x="-831" y="397" width="120" height="60" as="geometry"/>
                </mxCell>
                <mxCell id="8" value="Photo" style="rounded=1;whiteSpace=wrap;html=1;fontSize=18;" parent="1" vertex="1">
                    <mxGeometry x="-831" y="469" width="120" height="60" as="geometry"/>
                </mxCell>
                <mxCell id="10" value="Delivery Person" style="swimlane;childLayout=stackLayout;horizontal=1;startSize=30;horizontalStack=0;rounded=1;fontSize=14;fontStyle=0;strokeWidth=2;resizeParent=0;resizeLast=1;shadow=0;dashed=0;align=center;" parent="1" vertex="1">
                    <mxGeometry x="-625" y="109" width="160" height="211" as="geometry">
                        <mxRectangle x="-622" y="167" width="134" height="30" as="alternateBounds"/>
                    </mxGeometry>
                </mxCell>
                <mxCell id="11" value="+id&#10;+name&#10;+email&#10;+cpf&#10;+password&#10;+address&#10;+district&#10;+state&#10;+city&#10;+createdAt&#10;+updatedAt&#10;+isActive" style="align=left;strokeColor=none;fillColor=none;spacingLeft=4;fontSize=12;verticalAlign=top;resizable=0;rotatable=0;part=1;" parent="10" vertex="1">
                    <mxGeometry y="30" width="160" height="181" as="geometry"/>
                </mxCell>
                <mxCell id="12" value="Recipient" style="swimlane;childLayout=stackLayout;horizontal=1;startSize=30;horizontalStack=0;rounded=1;fontSize=14;fontStyle=0;strokeWidth=2;resizeParent=0;resizeLast=1;shadow=0;dashed=0;align=center;" parent="1" vertex="1">
                    <mxGeometry x="-625" y="344" width="160" height="187" as="geometry"/>
                </mxCell>
                <mxCell id="13" value="+id&#10;+name&#10;+email&#10;+address&#10;+district&#10;+city&#10;+state&#10;+zipcode&#10;+createdAt&#10;+updatedAt" style="align=left;strokeColor=none;fillColor=none;spacingLeft=4;fontSize=12;verticalAlign=top;resizable=0;rotatable=0;part=1;" parent="12" vertex="1">
                    <mxGeometry y="30" width="160" height="157" as="geometry"/>
                </mxCell>
                <mxCell id="29" value="Fazer a listagem de entregas com possibilidade de query de pendentes ou feitas" style="text;html=1;align=center;verticalAlign=middle;resizable=0;points=[];autosize=1;strokeColor=none;fillColor=none;" parent="1" vertex="1">
                    <mxGeometry x="-617" y="1068" width="447" height="26" as="geometry"/>
                </mxCell>
                <mxCell id="30" value="&lt;span class=&quot;notion-enable-hover&quot; data-token-index=&quot;0&quot;&gt;Deve ser possível listar as encomendas com endereços de entrega próximo ao local do entregador&lt;/span&gt;" style="text;html=1;align=center;verticalAlign=middle;resizable=0;points=[];autosize=1;strokeColor=none;fillColor=none;" parent="1" vertex="1">
                    <mxGeometry x="-602" y="1288" width="545" height="26" as="geometry"/>
                </mxCell>
                <mxCell id="31" value="Pendentes: Listar as entregas aguardando e as retiradas pelo entregador" style="text;html=1;align=center;verticalAlign=middle;resizable=0;points=[];autosize=1;strokeColor=none;fillColor=none;" parent="1" vertex="1">
                    <mxGeometry x="-587" y="1101" width="408" height="26" as="geometry"/>
                </mxCell>
                <mxCell id="32" value="Feitas: apenas as entregas feitas pelo entregador" style="text;html=1;align=center;verticalAlign=middle;resizable=0;points=[];autosize=1;strokeColor=none;fillColor=none;" parent="1" vertex="1">
                    <mxGeometry x="-587" y="1130" width="282" height="26" as="geometry"/>
                </mxCell>
                <mxCell id="33" value="A rota normal para essa listagem, vai listar as entregas pendentes. O caminho adicional /feitas nessa rota vai buscar apenas as entregas feitas pelo entregador." style="text;html=1;align=left;verticalAlign=middle;resizable=1;points=[];autosize=0;strokeColor=none;fillColor=none;shadow=0;overflow=width;imageAspect=1;whiteSpace=wrap;" parent="1" vertex="1">
                    <mxGeometry x="-580" y="1162" width="393" height="62" as="geometry"/>
                </mxCell>
                <mxCell id="34" value="&lt;div style=&quot;&quot;&gt;&lt;span style=&quot;background-color: initial;&quot;&gt;A busca padrão da rota vai filtrar apenas pela cidade escolhida pelo entregador. O bairro poderá ser utilizado para filtrar mais a busca.&lt;/span&gt;&lt;/div&gt;" style="text;html=1;strokeColor=none;fillColor=none;align=left;verticalAlign=middle;whiteSpace=wrap;rounded=0;shadow=0;fontFamily=Helvetica;fontSize=12;fontColor=default;" parent="1" vertex="1">
                    <mxGeometry x="-581" y="1230" width="396" height="32" as="geometry"/>
                </mxCell>
                <mxCell id="35" value="&lt;div style=&quot;&quot;&gt;Deve ser possível marcar uma encomenda como aguardando (Disponível para retirada)&lt;br&gt;&lt;/div&gt;" style="text;html=1;strokeColor=none;fillColor=none;align=left;verticalAlign=middle;whiteSpace=wrap;rounded=0;shadow=0;fontFamily=Helvetica;fontSize=12;fontColor=default;" parent="1" vertex="1">
                    <mxGeometry x="343" y="1076" width="396" height="32" as="geometry"/>
                </mxCell>
                <mxCell id="36" value="&lt;div style=&quot;&quot;&gt;A encomenda terá status inicial como null&lt;/div&gt;" style="text;html=1;strokeColor=none;fillColor=none;align=left;verticalAlign=middle;whiteSpace=wrap;rounded=0;shadow=0;fontFamily=Helvetica;fontSize=12;fontColor=default;" parent="1" vertex="1">
                    <mxGeometry x="343" y="1123" width="396" height="32" as="geometry"/>
                </mxCell>
                <mxCell id="37" value="&lt;div style=&quot;&quot;&gt;O filtro será baseado na string de cidade de um estado e o bairro que será opcional&lt;/div&gt;" style="text;html=1;strokeColor=none;fillColor=none;align=left;verticalAlign=middle;whiteSpace=wrap;rounded=0;shadow=0;fontFamily=Helvetica;fontSize=12;fontColor=default;" parent="1" vertex="1">
                    <mxGeometry x="-594" y="1324" width="396" height="32" as="geometry"/>
                </mxCell>
                <mxCell id="38" value="&lt;div style=&quot;&quot;&gt;Na listagem, os pacotes irão vir com todos os seus dados.&lt;/div&gt;" style="text;html=1;strokeColor=none;fillColor=none;align=left;verticalAlign=middle;whiteSpace=wrap;rounded=0;shadow=0;fontFamily=Helvetica;fontSize=12;fontColor=default;" parent="1" vertex="1">
                    <mxGeometry x="-594" y="1376" width="396" height="32" as="geometry"/>
                </mxCell>
                <mxCell id="39" value="&lt;div style=&quot;&quot;&gt;Caso de uso de confirmar deve receber a foto e confirmar a entrega&lt;/div&gt;" style="text;html=1;strokeColor=none;fillColor=none;align=left;verticalAlign=middle;whiteSpace=wrap;rounded=0;shadow=0;fontFamily=Helvetica;fontSize=12;fontColor=default;" parent="1" vertex="1">
                    <mxGeometry x="-94" y="1068" width="396" height="32" as="geometry"/>
                </mxCell>
                <mxCell id="40" value="Admin" style="swimlane;childLayout=stackLayout;horizontal=1;startSize=30;horizontalStack=0;rounded=1;fontSize=14;fontStyle=0;strokeWidth=2;resizeParent=0;resizeLast=1;shadow=0;dashed=0;align=center;" parent="1" vertex="1">
                    <mxGeometry x="-436" y="109" width="160" height="199" as="geometry"/>
                </mxCell>
                <mxCell id="41" value="+id&#10;+name&#10;+email&#10;+cpf&#10;+password&#10;+address&#10;+district&#10;+state&#10;+city&#10;+createdAt&#10;+updatedAt" style="align=left;strokeColor=none;fillColor=none;spacingLeft=4;fontSize=12;verticalAlign=top;resizable=0;rotatable=0;part=1;" parent="40" vertex="1">
                    <mxGeometry y="30" width="160" height="169" as="geometry"/>
                </mxCell>
                <mxCell id="42" value="Package" style="swimlane;childLayout=stackLayout;horizontal=1;startSize=30;horizontalStack=0;rounded=1;fontSize=14;fontStyle=0;strokeWidth=2;resizeParent=0;resizeLast=1;shadow=0;dashed=0;align=center;" parent="1" vertex="1">
                    <mxGeometry x="-257" y="109" width="160" height="191" as="geometry">
                        <mxRectangle x="-254" y="167" width="89" height="30" as="alternateBounds"/>
                    </mxGeometry>
                </mxCell>
                <mxCell id="43" value="+id&#10;+description&#10;+status&#10;+postedAt&#10;+withdrewAt&#10;+deliveredAt&#10;+updatedAt&#10;+deliveryPersonId&#10;+recipientId&#10;" style="align=left;strokeColor=none;fillColor=none;spacingLeft=4;fontSize=12;verticalAlign=top;resizable=0;rotatable=0;part=1;" parent="42" vertex="1">
                    <mxGeometry y="30" width="160" height="161" as="geometry"/>
                </mxCell>
                <mxCell id="44" value="Notification" style="swimlane;childLayout=stackLayout;horizontal=1;startSize=30;horizontalStack=0;rounded=1;fontSize=14;fontStyle=0;strokeWidth=2;resizeParent=0;resizeLast=1;shadow=0;dashed=0;align=center;" parent="1" vertex="1">
                    <mxGeometry x="-436" y="344" width="160" height="120" as="geometry"/>
                </mxCell>
                <mxCell id="45" value="+id&#10;+title&#10;+content&#10;+createdAt&#10;+recipientId" style="align=left;strokeColor=none;fillColor=none;spacingLeft=4;fontSize=12;verticalAlign=top;resizable=0;rotatable=0;part=1;" parent="44" vertex="1">
                    <mxGeometry y="30" width="160" height="90" as="geometry"/>
                </mxCell>
                <mxCell id="47" value="Photo" style="swimlane;childLayout=stackLayout;horizontal=1;startSize=30;horizontalStack=0;rounded=1;fontSize=14;fontStyle=0;strokeWidth=2;resizeParent=0;resizeLast=1;shadow=0;dashed=0;align=center;" parent="1" vertex="1">
                    <mxGeometry x="-252" y="344" width="160" height="120" as="geometry"/>
                </mxCell>
                <mxCell id="48" value="+id&#10;+filename&#10;+createdAt&#10;+packageId" style="align=left;strokeColor=none;fillColor=none;spacingLeft=4;fontSize=12;verticalAlign=top;resizable=0;rotatable=0;part=1;" parent="47" vertex="1">
                    <mxGeometry y="30" width="160" height="90" as="geometry"/>
                </mxCell>
                <mxCell id="49" value="Status list" style="swimlane;fontStyle=0;childLayout=stackLayout;horizontal=1;startSize=30;horizontalStack=0;resizeParent=1;resizeParentMax=0;resizeLast=0;collapsible=1;marginBottom=0;whiteSpace=wrap;html=1;shadow=0;fontFamily=Helvetica;fontSize=12;fontColor=default;fillColor=none;gradientColor=none;" parent="1" vertex="1">
                    <mxGeometry x="-32" y="103" width="140" height="180" as="geometry"/>
                </mxCell>
                <mxCell id="50" value="null" style="text;strokeColor=none;fillColor=none;align=left;verticalAlign=middle;spacingLeft=4;spacingRight=4;overflow=hidden;points=[[0,0.5],[1,0.5]];portConstraint=eastwest;rotatable=0;whiteSpace=wrap;html=1;shadow=0;fontFamily=Helvetica;fontSize=12;fontColor=default;" parent="49" vertex="1">
                    <mxGeometry y="30" width="140" height="30" as="geometry"/>
                </mxCell>
                <mxCell id="51" value="waiting" style="text;strokeColor=none;fillColor=none;align=left;verticalAlign=middle;spacingLeft=4;spacingRight=4;overflow=hidden;points=[[0,0.5],[1,0.5]];portConstraint=eastwest;rotatable=0;whiteSpace=wrap;html=1;shadow=0;fontFamily=Helvetica;fontSize=12;fontColor=default;" parent="49" vertex="1">
                    <mxGeometry y="60" width="140" height="30" as="geometry"/>
                </mxCell>
                <mxCell id="53" value="withdrew" style="text;strokeColor=none;fillColor=none;align=left;verticalAlign=middle;spacingLeft=4;spacingRight=4;overflow=hidden;points=[[0,0.5],[1,0.5]];portConstraint=eastwest;rotatable=0;whiteSpace=wrap;html=1;shadow=0;fontFamily=Helvetica;fontSize=12;fontColor=default;" parent="49" vertex="1">
                    <mxGeometry y="90" width="140" height="30" as="geometry"/>
                </mxCell>
                <mxCell id="52" value="delivered" style="text;strokeColor=none;fillColor=none;align=left;verticalAlign=middle;spacingLeft=4;spacingRight=4;overflow=hidden;points=[[0,0.5],[1,0.5]];portConstraint=eastwest;rotatable=0;whiteSpace=wrap;html=1;shadow=0;fontFamily=Helvetica;fontSize=12;fontColor=default;" parent="49" vertex="1">
                    <mxGeometry y="120" width="140" height="30" as="geometry"/>
                </mxCell>
                <mxCell id="54" value="returned" style="text;strokeColor=none;fillColor=none;align=left;verticalAlign=middle;spacingLeft=4;spacingRight=4;overflow=hidden;points=[[0,0.5],[1,0.5]];portConstraint=eastwest;rotatable=0;whiteSpace=wrap;html=1;shadow=0;fontFamily=Helvetica;fontSize=12;fontColor=default;" parent="49" vertex="1">
                    <mxGeometry y="150" width="140" height="30" as="geometry"/>
                </mxCell>
                <mxCell id="55" style="edgeStyle=none;html=1;fontFamily=Helvetica;fontSize=12;fontColor=default;" parent="1" source="43" target="49" edge="1">
                    <mxGeometry relative="1" as="geometry"/>
                </mxCell>
                <mxCell id="56" value="Notificação por email" style="text;html=1;align=center;verticalAlign=middle;resizable=0;points=[];autosize=1;strokeColor=none;fillColor=none;fontSize=12;fontFamily=Helvetica;fontColor=default;shadow=0;" parent="1" vertex="1">
                    <mxGeometry x="-423" y="481" width="130" height="26" as="geometry"/>
                </mxCell>
                <mxCell id="57" value="Delivery Person" style="rounded=1;whiteSpace=wrap;html=1;fontSize=18;" parent="1" vertex="1">
                    <mxGeometry x="-418" y="-258" width="120" height="60" as="geometry"/>
                </mxCell>
                <mxCell id="58" value="Admin" style="rounded=1;whiteSpace=wrap;html=1;fontSize=18;" parent="1" vertex="1">
                    <mxGeometry x="-617" y="-260" width="120" height="60" as="geometry"/>
                </mxCell>
                <mxCell id="59" value="Package" style="rounded=1;whiteSpace=wrap;html=1;fontSize=18;" parent="1" vertex="1">
                    <mxGeometry x="-415" y="-89" width="120" height="60" as="geometry"/>
                </mxCell>
                <mxCell id="60" value="Recipient" style="rounded=1;whiteSpace=wrap;html=1;fontSize=18;" parent="1" vertex="1">
                    <mxGeometry x="-616" y="-89" width="120" height="60" as="geometry"/>
                </mxCell>
                <mxCell id="61" value="Notification" style="rounded=1;whiteSpace=wrap;html=1;fontSize=18;" parent="1" vertex="1">
                    <mxGeometry x="-415" y="-1" width="120" height="60" as="geometry"/>
                </mxCell>
                <mxCell id="62" value="Photo" style="rounded=1;whiteSpace=wrap;html=1;fontSize=18;" parent="1" vertex="1">
                    <mxGeometry x="-214" y="-89" width="120" height="60" as="geometry"/>
                </mxCell>
                <mxCell id="63" value="" style="edgeStyle=entityRelationEdgeStyle;fontSize=12;html=1;endArrow=ERoneToMany;fontFamily=Helvetica;fontColor=default;" parent="1" source="60" target="59" edge="1">
                    <mxGeometry width="100" height="100" relative="1" as="geometry">
                        <mxPoint x="-442" y="70" as="sourcePoint"/>
                        <mxPoint x="-342" y="-30" as="targetPoint"/>
                    </mxGeometry>
                </mxCell>
                <mxCell id="64" value="" style="fontSize=12;html=1;endArrow=ERoneToMany;fontFamily=Helvetica;fontColor=default;" parent="1" source="60" target="61" edge="1">
                    <mxGeometry width="100" height="100" relative="1" as="geometry">
                        <mxPoint x="-604" y="125" as="sourcePoint"/>
                        <mxPoint x="-504" y="25" as="targetPoint"/>
                    </mxGeometry>
                </mxCell>
                <mxCell id="65" value="" style="edgeStyle=entityRelationEdgeStyle;fontSize=12;html=1;endArrow=ERmandOne;startArrow=ERmandOne;fontFamily=Helvetica;fontColor=default;" parent="1" source="59" target="62" edge="1">
                    <mxGeometry width="100" height="100" relative="1" as="geometry">
                        <mxPoint x="-275" y="-115" as="sourcePoint"/>
                        <mxPoint x="-175" y="-215" as="targetPoint"/>
                    </mxGeometry>
                </mxCell>
                <mxCell id="66" value="" style="fontSize=12;html=1;endArrow=ERoneToMany;fontFamily=Helvetica;fontColor=default;" parent="1" source="57" target="59" edge="1">
                    <mxGeometry width="100" height="100" relative="1" as="geometry">
                        <mxPoint x="-310" y="-115" as="sourcePoint"/>
                        <mxPoint x="-210" y="-215" as="targetPoint"/>
                    </mxGeometry>
                </mxCell>
                <mxCell id="67" value="&lt;font style=&quot;font-size: 36px;&quot;&gt;Casos de Uso&lt;/font&gt;" style="text;html=1;strokeColor=none;fillColor=none;align=center;verticalAlign=middle;whiteSpace=wrap;rounded=0;" parent="1" vertex="1">
                    <mxGeometry x="-71" y="910" width="268" height="30" as="geometry"/>
                </mxCell>
                <mxCell id="69" value="&lt;p style=&quot;line-height: 30%;&quot;&gt;&lt;font style=&quot;font-size: 14px;&quot;&gt;O delete do delivery person será um soft delete. Será usado o isActive para dizer se o cadastro está ativo ou não.&lt;/font&gt;&lt;/p&gt;" style="text;html=1;strokeColor=none;fillColor=none;align=left;verticalAlign=middle;whiteSpace=wrap;rounded=0;fontSize=36;" parent="1" vertex="1">
                    <mxGeometry x="804" y="1068" width="392" height="59" as="geometry"/>
                </mxCell>
                <mxCell id="70" value="Cada recipient terá um email único" style="text;html=1;strokeColor=none;fillColor=none;align=center;verticalAlign=middle;whiteSpace=wrap;rounded=0;" parent="1" vertex="1">
                    <mxGeometry x="1270" y="1078" width="280" height="30" as="geometry"/>
                </mxCell>
            </root>
        </mxGraphModel>
    </diagram>
</mxfile>